<?xml version="1.0" standalone="no"?>
<!DOCTYPE svg PUBLIC "-//W3C//DTD SVG 20010904//EN"
 "http://www.w3.org/TR/2001/REC-SVG-20010904/DTD/svg10.dtd">
<svg version="1.0" xmlns="http://www.w3.org/2000/svg"
 width="875.000000pt" height="92.000000pt" viewBox="0 0 875.000000 92.000000"
 preserveAspectRatio="xMidYMid meet">
<metadata>
Created by potrace 1.15, written by Peter Selinger 2001-2017
</metadata>
<g transform="translate(0.000000,92.000000) scale(0.100000,-0.100000)"
fill="#000000" stroke="none">
<path d="M7210 470 l0 -230 25 0 25 0 0 230 0 230 -25 0 -25 0 0 -230z"/>
<path d="M7370 470 c0 -223 1 -230 20 -230 19 0 20 7 20 230 0 223 -1 230 -20
230 -19 0 -20 -7 -20 -230z"/>
<path d="M3670 460 l0 -220 126 0 c124 0 125 0 122 23 -3 21 -8 22 -100 25
l-98 3 0 194 0 195 -25 0 -25 0 0 -220z"/>
<path d="M5035 665 c-48 -17 -101 -74 -115 -124 -30 -108 5 -238 76 -282 66
-40 216 -36 222 7 3 18 -3 19 -81 16 -82 -4 -85 -3 -119 27 -83 72 -75 246 14
301 28 18 46 21 113 18 68 -3 80 -1 83 14 7 34 -118 49 -193 23z"/>
<path d="M3980 405 l0 -165 25 0 25 0 0 165 0 165 -25 0 -25 0 0 -165z"/>
<path d="M4165 554 c-37 -19 -45 -31 -45 -72 0 -40 32 -73 91 -92 85 -28 113
-74 64 -106 -25 -16 -75 -16 -132 2 -19 5 -23 2 -23 -15 0 -56 162 -54 210 3
20 25 18 81 -5 106 -10 11 -44 30 -76 41 -91 34 -113 74 -54 101 19 9 40 9 76
1 44 -9 51 -8 60 8 8 15 3 20 -28 28 -54 15 -103 13 -138 -5z"/>
<path d="M4473 556 c-24 -11 -31 -20 -27 -31 5 -12 13 -15 28 -10 11 3 39 9
61 12 46 6 71 -13 81 -64 l6 -30 -70 -6 c-39 -3 -84 -13 -100 -21 -54 -28 -66
-111 -22 -151 11 -10 41 -20 67 -22 39 -4 55 0 85 20 34 24 36 24 41 6 3 -10
12 -19 21 -19 14 0 16 18 16 134 0 127 -1 137 -23 162 -19 22 -34 28 -78 31
-33 2 -66 -2 -86 -11z m137 -195 c0 -43 -9 -60 -41 -76 -39 -21 -75 -19 -99 5
-26 26 -25 46 5 75 20 21 34 25 80 25 54 0 55 0 55 -29z"/>
<path d="M5363 559 c-37 -11 -45 -20 -34 -37 6 -10 17 -10 52 -1 57 15 92 7
107 -26 22 -49 16 -65 -25 -65 -134 -1 -204 -61 -169 -145 25 -59 106 -74 169
-31 35 24 36 24 42 5 4 -10 13 -19 21 -19 19 0 20 266 0 292 -26 35 -95 47
-163 27z m137 -184 c0 -82 -98 -137 -150 -85 -26 26 -25 46 5 75 20 21 34 25
85 25 47 0 60 -3 60 -15z"/>
<path d="M5711 553 c-55 -29 -75 -64 -79 -141 -4 -80 15 -125 68 -160 29 -20
44 -23 88 -20 57 5 78 18 69 41 -5 13 -13 13 -46 5 -81 -21 -131 26 -131 122
0 94 46 137 131 124 31 -5 40 -3 45 10 9 23 3 27 -57 32 -40 4 -63 1 -88 -13z"/>
<path d="M6001 553 c-55 -29 -75 -64 -79 -141 -4 -80 15 -125 68 -160 29 -20
44 -23 88 -20 57 5 78 18 69 41 -5 13 -13 13 -46 5 -81 -21 -131 26 -131 122
0 94 46 137 131 124 31 -5 40 -3 45 10 9 23 3 27 -57 32 -40 4 -63 1 -88 -13z"/>
<path d="M6273 556 c-24 -11 -31 -20 -27 -31 5 -12 13 -15 28 -10 11 3 39 9
61 12 46 6 71 -13 81 -64 l6 -30 -70 -6 c-39 -3 -84 -13 -100 -21 -54 -28 -66
-111 -22 -151 11 -10 41 -20 67 -22 39 -4 55 0 85 20 34 24 36 24 41 6 3 -10
12 -19 21 -19 14 0 16 18 16 134 0 127 -1 137 -23 162 -19 22 -34 28 -78 31
-33 2 -66 -2 -86 -11z m137 -195 c0 -43 -9 -60 -41 -76 -39 -21 -75 -19 -99 5
-26 26 -25 46 5 75 20 21 34 25 80 25 54 0 55 0 55 -29z"/>
<path d="M6529 523 c10 -26 38 -101 62 -166 43 -116 45 -118 73 -115 28 3 32
10 87 158 33 85 59 158 59 163 0 4 -11 7 -24 7 -22 0 -28 -13 -71 -135 -26
-75 -51 -133 -54 -129 -3 3 -27 63 -52 132 -42 117 -47 127 -72 130 l-27 3 19
-48z"/>
<path d="M6930 553 c-45 -23 -80 -90 -80 -153 0 -63 35 -130 80 -152 63 -32
180 -17 180 23 0 16 -5 17 -32 11 -18 -4 -52 -7 -76 -7 -50 1 -88 32 -98 83
l-6 32 112 0 112 0 -4 56 c-4 45 -10 61 -35 86 -39 39 -102 47 -153 21z"/>
<path d="M7573 559 c-37 -11 -45 -20 -34 -37 6 -10 17 -10 52 -1 57 15 92 7
107 -26 22 -49 16 -65 -25 -65 -134 -1 -204 -61 -169 -145 25 -59 106 -74 169
-31 35 24 36 24 42 5 4 -10 13 -19 21 -19 19 0 20 266 0 292 -26 35 -95 47
-163 27z m137 -184 c0 -82 -98 -137 -150 -85 -26 26 -25 46 5 75 20 21 34 25
85 25 47 0 60 -3 60 -15z"/>
</g>
</svg>
